<svg width="20" height="18" viewBox="0 0 20 18" fill="none" xmlns="http://www.w3.org/2000/svg">
<g clip-path="url(#clip0_1673_82875)">
<path d="M9.60469 3.64684L9.93791 4.1502L10.2716 3.64713C11.8212 1.31073 14.0013 0.83294 15.7775 1.50019C17.576 2.17583 19.0286 4.05016 19.0286 6.57403C19.0286 7.46222 18.5472 8.53567 17.7339 9.69795C16.9294 10.8478 15.8407 12.0282 14.7143 13.1196C13.5898 14.2092 12.4377 15.2005 11.5126 15.9729C11.1803 16.2503 10.8787 16.4984 10.6174 16.7134C10.5145 16.7979 10.4179 16.8774 10.3282 16.9514C10.1805 17.0733 10.0476 17.1836 9.936 17.2787C9.81925 17.1819 9.67972 17.0699 9.52503 16.9469C9.39558 16.8439 9.25336 16.7316 9.09925 16.6098C8.85752 16.4188 8.58652 16.2047 8.28953 15.9674C7.32231 15.1946 6.11412 14.203 4.93328 13.113C3.7505 12.0211 2.60591 10.8403 1.75987 9.69023C0.903751 8.52647 0.4 7.4559 0.4 6.57403C0.4 4.04529 1.95058 2.16461 3.86975 1.48758C5.77255 0.816325 8.06391 1.31938 9.60469 3.64684Z" stroke="#00C65E" stroke-width="0.8"/>
</g>
<defs>
<clipPath id="clip0_1673_82875">
<rect width="19.4286" height="17" fill="white" transform="translate(0 0.813477)"/>
</clipPath>
</defs>
</svg>
