<svg width="56" height="56" viewBox="0 0 56 56" fill="none" xmlns="http://www.w3.org/2000/svg">
<g id="&#240;&#159;&#166;&#134; icon &#34;account balance wallet&#34;">
<path id="Vector" d="M23.4444 37.1111V18.8889C23.4444 16.3833 25.4717 14.3333 28 14.3333H48.5V12.0556C48.5 9.55 46.45 7.5 43.9444 7.5H12.0556C9.52722 7.5 7.5 9.55 7.5 12.0556V43.9444C7.5 46.45 9.52722 48.5 12.0556 48.5H43.9444C46.45 48.5 48.5 46.45 48.5 43.9444V41.6667H28C25.4717 41.6667 23.4444 39.6167 23.4444 37.1111ZM30.2778 18.8889C29.025 18.8889 28 19.9139 28 21.1667V34.8333C28 36.0861 29.025 37.1111 30.2778 37.1111H50.7778V18.8889H30.2778ZM37.1111 31.4167C35.2206 31.4167 33.6944 29.8906 33.6944 28C33.6944 26.1094 35.2206 24.5833 37.1111 24.5833C39.0017 24.5833 40.5278 26.1094 40.5278 28C40.5278 29.8906 39.0017 31.4167 37.1111 31.4167Z" fill="black"/>
</g>
</svg>
